<?xml version="1.0" encoding="UTF-8" standalone="no"?>
<svg
   xmlns:dc="http://purl.org/dc/elements/1.1/"
   xmlns:cc="http://creativecommons.org/ns#"
   xmlns:rdf="http://www.w3.org/1999/02/22-rdf-syntax-ns#"
   xmlns:svg="http://www.w3.org/2000/svg"
   xmlns="http://www.w3.org/2000/svg"
   xmlns:sodipodi="http://sodipodi.sourceforge.net/DTD/sodipodi-0.dtd"
   xmlns:inkscape="http://www.inkscape.org/namespaces/inkscape"
   height="250"
   width="130"
   version="1.1"
   x="0px"
   y="0px"
   viewBox="0 0 39 75"
   style="fill:#000000"
   xml:space="preserve"
   id="svg8"
   sodipodi:docname="car.svg"
   inkscape:version="0.92.4 (5da689c313, 2019-01-14)"><metadata
     id="metadata14"><rdf:RDF><cc:Work
         rdf:about=""><dc:format>image/svg+xml</dc:format><dc:type
           rdf:resource="http://purl.org/dc/dcmitype/StillImage" /><dc:title></dc:title></cc:Work></rdf:RDF></metadata><defs
     id="defs12" /><sodipodi:namedview
     pagecolor="#ffffff"
     bordercolor="#666666"
     borderopacity="1"
     objecttolerance="10"
     gridtolerance="10"
     guidetolerance="10"
     inkscape:pageopacity="0"
     inkscape:pageshadow="2"
     inkscape:window-width="1850"
     inkscape:window-height="1016"
     id="namedview10"
     showgrid="false"
     inkscape:zoom="0.78666667"
     inkscape:cx="150"
     inkscape:cy="139.83051"
     inkscape:window-x="70"
     inkscape:window-y="27"
     inkscape:window-maximized="1"
     inkscape:current-layer="svg8" /><style
     type="text/css"
     id="style2">
	.st0{display:none;}
	.st1{display:inline;}
</style><g
     id="g6"
     transform="translate(-25.169492,-7.3728817)"><path
       d="M 62.1,36.5 C 61.2,35.3 58.5,35 58.5,35 58.6,31.5 59,28.1 59.2,26.8 61.1,19.5 57.5,15 57.5,15 52.7,10.2 48.4,10 45,10 c -3.4,0 -7.8,0.3 -12.5,5 0,0 -3.6,4.5 -1.7,11.8 0.2,1.2 0.5,4.6 0.7,8.2 0,0 -2.7,0.3 -3.6,1.5 -0.9,1.2 -0.9,1.9 0,1.9 0.9,0 2.9,-2.3 3.6,-2.3 V 35 c 0,1 0.1,2 0.1,3 0,4.4 0,33.7 0,33.7 0,0 -0.3,6.1 5,7.8 1.2,0 4.6,0.4 8.4,0.5 3.8,-0.1 7.3,-0.5 8.4,-0.5 5.3,-1.7 5,-7.8 5,-7.8 0,0 0,-29.3 0,-33.7 0,-1 0,-2 0.1,-3 v 1.2 c 0.7,0 2.7,2.3 3.6,2.3 0.9,0 0.9,-0.8 0,-2 z m -27.4,30 c -0.3,3.3 -2.3,4.1 -2.3,4.1 V 37.4 c 0.8,1.2 2.3,6.8 2.3,6.8 0,0 0.2,19 0,22.3 z m 20.1,8.7 c 0,0 -4.2,2.3 -9.8,2.2 -5.6,0.1 -9.8,-2.2 -9.8,-2.2 v -2.8 c 4.9,2.2 9.8,2.2 9.8,2.2 0,0 4.9,0 9.8,-2.2 z M 35.2,41.1 33.5,30.9 c 0,0 4.5,-3.2 11.5,-3.2 7,0 11.5,3.2 11.5,3.2 l -1.7,10.2 c -3.4,-1.9 -16.2,-1.9 -19.6,0 z m 22.5,29.5 c 0,0 -2.1,-0.8 -2.3,-4.1 -0.3,-3.3 0,-22.4 0,-22.4 0,0 1.5,-5.6 2.3,-6.8 z"
       id="path4"
       inkscape:connector-curvature="0" /></g></svg>