<?xml version="1.0" encoding="UTF-8" standalone="no"?>
<svg
   xmlns:dc="http://purl.org/dc/elements/1.1/"
   xmlns:cc="http://creativecommons.org/ns#"
   xmlns:rdf="http://www.w3.org/1999/02/22-rdf-syntax-ns#"
   xmlns:svg="http://www.w3.org/2000/svg"
   xmlns="http://www.w3.org/2000/svg"
   xmlns:sodipodi="http://sodipodi.sourceforge.net/DTD/sodipodi-0.dtd"
   xmlns:inkscape="http://www.inkscape.org/namespaces/inkscape"
   height="250"
   width="130"
   version="1.1"
   x="0px"
   y="0px"
   viewBox="0 0 39 75"
   style="fill:#000000"
   xml:space="preserve"
   id="svg8"
   sodipodi:docname="car-0.svg"
   inkscape:version="0.92.4 (5da689c313, 2019-01-14)"><metadata
     id="metadata14"><rdf:RDF><cc:Work
         rdf:about=""><dc:format>image/svg+xml</dc:format><dc:type
           rdf:resource="http://purl.org/dc/dcmitype/StillImage" /><dc:title /></cc:Work></rdf:RDF></metadata><defs
     id="defs12" /><sodipodi:namedview
     pagecolor="#ffffff"
     bordercolor="#666666"
     borderopacity="1"
     objecttolerance="10"
     gridtolerance="10"
     guidetolerance="10"
     inkscape:pageopacity="0"
     inkscape:pageshadow="2"
     inkscape:window-width="1850"
     inkscape:window-height="1016"
     id="namedview10"
     showgrid="false"
     inkscape:zoom="6.2933334"
     inkscape:cx="77.53696"
     inkscape:cy="207.79522"
     inkscape:window-x="70"
     inkscape:window-y="27"
     inkscape:window-maximized="1"
     inkscape:current-layer="svg8" /><style
     type="text/css"
     id="style2">
	.st0{display:none;}
	.st1{display:inline;}
</style><g
     id="g6"
     transform="translate(-25.169492,-7.3728817)"><path
       d="M 62.1,36.5 C 61.2,35.3 58.5,35 58.5,35 58.6,31.5 59,28.1 59.2,26.8 61.1,19.5 57.5,15 57.5,15 52.7,10.2 48.4,10 45,10 c -3.4,0 -7.8,0.3 -12.5,5 0,0 -3.6,4.5 -1.7,11.8 0.2,1.2 0.5,4.6 0.7,8.2 0,0 -2.7,0.3 -3.6,1.5 -0.9,1.2 -0.9,1.9 0,1.9 0.9,0 2.9,-2.3 3.6,-2.3 V 35 c 0,1 0.1,2 0.1,3 0,4.4 0,33.7 0,33.7 0,0 -0.3,6.1 5,7.8 1.2,0 4.6,0.4 8.4,0.5 3.8,-0.1 7.3,-0.5 8.4,-0.5 5.3,-1.7 5,-7.8 5,-7.8 0,0 0,-29.3 0,-33.7 0,-1 0,-2 0.1,-3 v 1.2 c 0.7,0 2.7,2.3 3.6,2.3 0.9,0 0.9,-0.8 0,-2 z m -27.4,30 c -0.3,3.3 -2.3,4.1 -2.3,4.1 V 37.4 c 0.8,1.2 2.3,6.8 2.3,6.8 0,0 0.2,19 0,22.3 z m 20.1,8.7 c 0,0 -4.2,2.3 -9.8,2.2 -5.6,0.1 -9.8,-2.2 -9.8,-2.2 v -2.8 c 4.9,2.2 9.8,2.2 9.8,2.2 0,0 4.9,0 9.8,-2.2 z M 35.2,41.1 33.5,30.9 c 0,0 4.5,-3.2 11.5,-3.2 7,0 11.5,3.2 11.5,3.2 l -1.7,10.2 c -3.4,-1.9 -16.2,-1.9 -19.6,0 z m 22.5,29.5 c 0,0 -2.1,-0.8 -2.3,-4.1 -0.3,-3.3 0,-22.4 0,-22.4 0,0 1.5,-5.6 2.3,-6.8 z"
       id="path4"
       inkscape:connector-curvature="0" /></g><path
     style="fill:#a0a0a0;stroke:none;stroke-width:1.27118647"
     d="m 46.271187,240.45124 c -11.354469,-0.95428 -17.19097,-4.41019 -21.20218,-12.55426 L 22.118645,221.90678 21.333288,145 C 20.823041,95.033513 20.0544,66.312043 19.139039,63.008473 17.12802,55.750641 17.347416,44.851075 19.661369,37.059152 24.96086,19.213829 47.577053,7.3698115 72.178006,9.5563799 89.568068,11.102034 104.06371,19.373738 110.15758,31.228812 c 3.99795,7.777654 5.16862,21.77416 2.76438,33.050848 -1.16318,5.455683 -1.83472,29.160522 -2.35879,83.26271 -0.72738,75.09076 -0.75306,75.67374 -3.56405,80.93109 -4.45034,8.32337 -9.102503,10.88015 -21.828532,11.99673 -12.371094,1.08544 -25.836768,1.07888 -38.899401,-0.0189 z m 36.437001,-8.30771 c 4.658993,-0.98747 10.236324,-2.70833 12.394067,-3.82414 3.41121,-1.76401 3.923169,-2.70578 3.923169,-7.21685 0,-4.45353 -0.314975,-5.05433 -2.224576,-4.24328 -18.73879,7.9588 -42.886214,7.9466 -61.733802,-0.0311 -2.053387,-0.86916 -2.262146,-0.3698 -1.906779,4.56104 0.387338,5.37448 0.585683,5.60653 6.754988,7.90297 13.170057,4.90238 28.345346,5.91356 42.792933,2.85144 z M 29.813032,205.65929 c 2.281431,-3.77135 2.506521,-7.09866 2.876618,-42.52261 l 0.401515,-38.43112 -3.373246,-11.14516 c -1.855285,-6.12983 -3.895076,-11.68858 -4.53287,-12.35277 -0.699442,-0.7284 -1.159625,20.82122 -1.159625,54.30333 0,59.10493 0.05918,59.61774 5.787608,50.14833 z m 79.381888,-50.56483 c 0,-36.35214 -0.43834,-55.736311 -1.24904,-55.235273 -0.68696,0.424573 -2.68908,5.493143 -4.44915,11.263503 -3.12741,10.25318 -3.20012,11.39452 -3.20012,50.23411 0,27.02419 0.45908,40.63111 1.43453,42.51914 1.88874,3.65574 5.04564,7.22575 6.38961,7.22575 0.59079,0 1.07417,-25.20325 1.07417,-56.00723 z M 65.974577,108.99708 c 15.607561,0 22.521293,0.50899 27.019225,1.98918 7.035388,2.31522 6.065687,3.95384 9.209588,-15.562533 1.06996,-6.641949 2.22313,-13.321605 2.56261,-14.843682 0.51795,-2.32226 -0.4949,-3.293533 -6.296669,-6.038209 -11.245598,-5.32002 -22.594262,-7.424298 -36.308314,-6.732315 -12.690146,0.640318 -26.047175,4.222388 -31.730735,8.509506 l -3.120088,2.353486 2.263091,14.413743 c 3.446233,21.949254 2.501821,20.170634 9.487676,17.868214 4.379367,-1.44335 11.447248,-1.95739 26.913616,-1.95739 z"
     id="path816"
     inkscape:connector-curvature="0"
     transform="scale(0.3)" /><path
     style="fill:#a0a0a0;stroke:none;stroke-width:1.27118647"
     d="m 7.733388,100.87098 c 0.7557806,-3.924458 12.478477,-10.339289 12.478477,-6.82841 0,1.311735 -10.068347,9.00828 -11.7843136,9.00828 -0.6126825,0 -0.925056,-0.98095 -0.6941634,-2.17987 z"
     id="path818"
     inkscape:connector-curvature="0"
     transform="scale(0.3)" /><path
     style="fill:#a0a0a0;stroke:none;stroke-width:1.27118647"
     d="m 117.07246,99.127316 c -6.18171,-4.546083 -6.95521,-6.923663 -1.83941,-5.653943 4.04215,1.003243 9.2161,5.433998 9.2161,7.892277 0,2.53463 -1.50915,2.07671 -7.37669,-2.238334 z"
     id="path820"
     inkscape:connector-curvature="0"
     transform="scale(0.3)" /></svg>